<?xml version="1.0" encoding="UTF-8" standalone="no" ?>
<!DOCTYPE svg PUBLIC "-//W3C//DTD SVG 1.1//EN" "http://www.w3.org/Graphics/SVG/1.1/DTD/svg11.dtd">
<svg xmlns="http://www.w3.org/2000/svg" xmlns:xlink="http://www.w3.org/1999/xlink" version="1.1" width="500" height="500" viewBox="0 0 500 500" xml:space="preserve">
<desc>Created with Fabric.js 5.3.0</desc>
<defs>
</defs>
<g transform="matrix(1.0640077634 0 0 1.0640077634 250 250)" id="f5Xy9q7RDyflQUt27VvCG"  >
<path style="stroke: none; stroke-width: 1; stroke-dasharray: none; stroke-linecap: butt; stroke-dashoffset: 0; stroke-linejoin: miter; stroke-miterlimit: 4; fill: rgb(255,0,0); fill-rule: nonzero; opacity: 1;"  transform=" translate(-350, -350)" d="M 582.194 205.976 C 565.116 213.543 546.77 218.656 527.4839999999999 220.96699999999998 C 547.1589999999999 209.18699999999998 562.2529999999999 190.493 569.3699999999999 168.24099999999999 C 550.9629999999999 179.16299999999998 530.5719999999999 187.09799999999998 508.8729999999999 191.35199999999998 C 491.4879999999999 172.86399999999998 466.7409999999999 161.28799999999998 439.33499999999987 161.28799999999998 C 386.73199999999986 161.28799999999998 344.06899999999985 203.95099999999996 344.06899999999985 256.59499999999997 C 344.07160062255946 263.890815356377 344.8947746397737 271.16319216697326 346.5229999999999 278.27500000000003 C 267.31199999999984 274.286 197.13999999999984 236.34699999999998 150.14099999999985 178.71299999999997 C 141.96099999999984 192.82499999999996 137.25599999999986 209.18699999999995 137.25599999999986 226.61199999999997 C 137.25599999999986 259.662 154.08899999999986 288.84799999999996 179.63299999999987 305.92599999999993 C 164.50409719429882 305.44410105986583 149.70904293322982 301.35603907235634 136.47899999999987 294.00199999999995 L 136.47899999999987 295.2289999999999 C 136.47899999999987 341.3889999999999 169.30499999999986 379.90099999999995 212.90899999999988 388.6549999999999 C 204.7269671377269 390.8624911732869 196.28858592394823 391.976512171942 187.81399999999988 391.9679999999999 C 181.79596603196092 391.972838441864 175.79082859504197 391.4113634484589 169.87799999999987 390.2909999999999 C 182.00599999999986 428.1269999999999 217.18399999999986 455.6969999999999 258.88599999999985 456.4329999999999 C 226.26399999999984 481.9979999999999 185.17599999999987 497.2349999999999 140.54899999999986 497.2349999999999 C 132.85899999999987 497.2349999999999 125.27099999999986 496.7849999999999 117.80599999999987 495.9049999999999 C 159.97899999999987 522.9649999999999 210.04599999999988 538.7119999999999 263.83499999999987 538.7119999999999 C 439.1099999999999 538.7119999999999 534.9289999999999 393.5419999999999 534.9289999999999 267.6389999999999 C 534.9289999999999 263.5489999999999 534.8259999999999 259.4169999999999 534.6419999999998 255.32699999999988 C 553.2539999999998 241.8689999999999 569.4109999999998 225.1189999999999 582.1519999999998 206.0369999999999 z" stroke-linecap="round" />
</g>
</svg>